<svg width="390" height="56" viewBox="0 0 390 56" fill="none" xmlns="http://www.w3.org/2000/svg">
<path d="M53.453 0.0660662C54.4265 -0.0403329 55.7947 -0.000891083 56.7739 0.063407C72.4318 1.09126 81.9767 15.6649 81.0495 30.3039C80.2667 30.8721 79.4728 31.4254 78.6688 31.9636C79.6312 24.8333 77.8045 17.6082 73.561 11.7688C70.0853 10.9468 64.883 13.3899 61.8576 14.9402C66.8571 20.0855 72.5142 27.3704 74.9903 34.1182L73.2645 34.9673C70.6578 28.1089 65.3221 21.1794 60.1513 15.9696C57.9448 17.1769 55.8429 18.7657 53.8216 20.2613C60.1217 25.5086 59.7409 32.6005 58.5469 39.9844C57.8994 40.1565 57.0999 40.3148 56.4358 40.4631C56.7906 38.8416 57.0444 37.2 57.1954 35.5476C57.6094 29.7822 57.0119 25.3166 52.3034 21.4968C45.8644 26.7296 39.8747 34.2775 36.6529 41.8557L34.6956 41.6509C37.6135 33.6555 44.1711 25.986 50.5832 20.4224C49.7671 19.9793 48.9167 19.6006 48.0404 19.2898C43.8672 17.8285 38.8696 17.9047 34.8484 19.8105C33.4422 20.4765 31.2311 21.886 30.7105 23.3718C30.402 24.2518 30.2741 25.72 30.2278 26.6745C29.9703 32.0544 31.2107 36.2404 33.5552 40.9765C32.6521 40.8412 31.8054 40.71 30.8948 40.6348C29.3432 37.4311 28.3918 33.9751 28.088 30.435C27.5201 22.716 30.0583 15.0879 35.1485 9.21501C39.7515 3.84213 46.3544 0.54211 53.453 0.0660662Z" fill="#011C49"/>
<path d="M43.6798 5.19586C48.229 5.69926 55.3263 11.3001 58.6453 14.5538C56.3979 15.9579 54.2436 17.5084 52.1972 19.1953C50.138 18.0067 48.7058 17.399 46.38 16.8286C45.7612 16.7142 45.1405 16.6153 44.5171 16.5318C40.1809 15.9879 35.3098 16.8982 31.8027 19.6289C34.0224 13.7395 37.9916 8.11263 43.6798 5.19586Z" fill="white"/>
<path d="M53.4077 2.38085C53.9546 2.29089 55.6347 2.30138 56.2128 2.32833C62.4165 2.61816 67.6036 5.17755 71.7749 9.73073C68.7285 10.0266 66.5346 10.7181 63.7378 11.9444C62.6358 12.4306 61.5586 12.9722 60.5116 13.567C56.9019 10.0673 51.4551 5.56682 46.6828 3.97876C48.6345 3.08258 51.2946 2.61807 53.4077 2.38085Z" fill="white"/>
<path d="M83.3789 19.0516C85.0175 19.7072 85.7686 20.0817 87.1604 21.1658C88.7025 22.5359 89.7559 24.1657 89.8561 26.2641C89.9942 29.1565 88.4021 31.7953 86.4835 33.8485C77.7827 43.1596 56.8843 47.7273 44.2972 48.1698C37.7477 48.3999 26.6378 47.6372 21.6926 43.0519C20.4352 41.8857 19.595 40.336 19.5505 38.6097C19.5106 37.0732 20.0448 35.6773 20.8895 34.4097C20.6716 36.042 20.7625 37.3787 21.8372 38.7395C24.2602 41.8091 30.627 43.1458 34.2732 43.5813C37.5623 43.9682 40.8773 44.0852 44.1859 43.9308C56.2435 43.3452 72.0465 39.324 81.7877 31.9977C83.8379 30.456 86.2165 27.8553 86.4984 25.2496C86.6226 24.1041 86.3732 23.0113 85.8947 21.9646C85.0193 20.5218 84.6985 20.1762 83.3789 19.0516Z" fill="#558B3E"/>
<path d="M78.4288 41.567L78.4855 41.6605C71.1134 56.8536 50.7909 60.633 37.9298 49.8129C38.8426 49.8533 41.6331 49.8158 42.2438 50.1862C45.6282 52.1992 48.0813 52.8884 51.897 53.5375C52.94 51.9891 53.6065 50.6684 54.2525 48.914C54.9534 48.7842 55.7239 48.6768 56.4332 48.5637C55.6914 50.5775 55.1151 51.8861 53.9987 53.7164C55.6105 53.8131 57.5607 53.661 59.1437 53.3648C66.158 52.0534 71.0576 48.7857 75.0955 43.0802C76.2147 42.5948 77.3264 42.0903 78.4288 41.567Z" fill="#011C49"/>
<path d="M19.3727 26.2983C19.9886 26.291 21.6746 26.1467 22.114 26.5601C22.8213 27.2239 22.4089 28.482 21.3601 28.5336C19.9494 28.6028 18.5199 28.5697 17.0999 28.5678L8.24529 28.5505C7.1499 28.555 6.05544 28.5472 4.96005 28.5271C8.19024 26.2745 15.5249 26.3406 19.3727 26.2983Z" fill="#558B3E"/>
<path d="M21.7624 18.7984C22.642 18.7972 25.2395 18.5999 25.6305 19.1483C27.3822 21.6045 21.767 21.0093 21.0328 21.0074L13.651 20.9851C12.16 20.9941 10.5227 21.038 9.0448 20.9496C12.3588 18.957 17.9861 18.861 21.7624 18.7984Z" fill="#558B3E"/>
<path d="M10.8468 33.213C12.0766 33.1994 13.2924 33.1793 14.5241 33.2199C16.3092 33.2789 15.9483 35.0655 14.7418 35.165C13.7734 35.2449 12.4887 35.1982 11.4952 35.1966L4.71925 35.1837C3.84668 35.1914 0.566988 35.3076 0 35.05L0.00688717 34.9341C2.20386 33.4523 8.1649 33.278 10.8468 33.213Z" fill="#558B3E"/>
<path d="M113.77 43.75C110.855 43.75 108.366 43.0849 106.3 41.7547C104.235 40.4245 102.636 38.5849 101.505 36.2358C100.401 33.8585 99.8494 31.1274 99.8494 28.0425C99.8494 25.0142 100.415 22.3113 101.547 19.934C102.679 17.5566 104.306 15.6887 106.428 14.3302C108.578 12.9434 111.153 12.25 114.152 12.25C116.755 12.25 118.947 12.6887 120.73 13.566C122.541 14.4151 123.984 15.6321 125.059 17.217C126.134 18.8019 126.884 20.6698 127.308 22.8208L120.645 23.1179C120.334 21.4481 119.669 20.1321 118.65 19.1698C117.66 18.1792 116.175 17.684 114.194 17.684C112.468 17.684 111.025 18.1368 109.865 19.0425C108.733 19.9481 107.885 21.1792 107.319 22.7358C106.781 24.2925 106.512 26.0613 106.512 28.0425C106.512 30.0519 106.781 31.8349 107.319 33.3915C107.885 34.9198 108.733 36.1226 109.865 37C111.025 37.8774 112.511 38.316 114.321 38.316C115.651 38.316 116.797 38.0472 117.759 37.5094C118.749 36.9717 119.513 36.2359 120.051 35.3019C120.617 34.3679 120.956 33.3066 121.069 32.1179H114.194V27.4057H127.393V43.0708H123.404L123.064 36.6179L123.828 36.9575C123.545 38.2877 122.923 39.4623 121.961 40.4811C120.999 41.5 119.81 42.3066 118.396 42.9009C117.009 43.467 115.467 43.75 113.77 43.75Z" fill="black"/>
<path d="M138.142 43.0708C136.275 43.0708 134.818 42.6038 133.771 41.6698C132.724 40.7358 132.2 39.2217 132.2 37.1274V12.9292H138.566V36.4481C138.566 37.1274 138.722 37.6085 139.033 37.8915C139.345 38.1745 139.797 38.316 140.391 38.316H141.919V43.0708H138.142Z" fill="black"/>
<path d="M155.403 43.5802C153.083 43.5802 151.06 43.0991 149.334 42.1368C147.608 41.1462 146.264 39.7594 145.302 37.9764C144.34 36.1934 143.859 34.0991 143.859 31.6934C143.859 29.2877 144.34 27.2075 145.302 25.4528C146.264 23.6698 147.608 22.283 149.334 21.2925C151.06 20.3019 153.083 19.8066 155.403 19.8066C157.723 19.8066 159.746 20.3019 161.472 21.2925C163.198 22.283 164.542 23.6698 165.504 25.4528C166.465 27.2075 166.946 29.2877 166.946 31.6934C166.946 34.0991 166.465 36.1934 165.504 37.9764C164.542 39.7594 163.198 41.1462 161.472 42.1368C159.746 43.0991 157.723 43.5802 155.403 43.5802ZM155.403 38.6981C156.987 38.6981 158.218 38.0896 159.095 36.8726C159.972 35.6274 160.411 33.9009 160.411 31.6934C160.411 29.4858 159.972 27.7736 159.095 26.5566C158.218 25.3113 156.987 24.6887 155.403 24.6887C153.818 24.6887 152.588 25.3113 151.711 26.5566C150.833 27.7736 150.395 29.4858 150.395 31.6934C150.395 33.9009 150.833 35.6274 151.711 36.8726C152.588 38.0896 153.818 38.6981 155.403 38.6981Z" fill="black"/>
<path d="M183.982 43.5802C182.397 43.5802 181.011 43.2406 179.823 42.5613C178.663 41.8821 177.757 40.934 177.106 39.717L176.979 43.0708H170.91V12.9292H177.276V23.5425C177.87 22.4953 178.747 21.6179 179.908 20.9104C181.068 20.1745 182.426 19.8066 183.982 19.8066C185.906 19.8066 187.575 20.3019 188.99 21.2925C190.404 22.2547 191.494 23.6274 192.258 25.4104C193.05 27.1934 193.446 29.2877 193.446 31.6934C193.446 34.0991 193.05 36.1934 192.258 37.9764C191.494 39.7594 190.404 41.1462 188.99 42.1368C187.575 43.0991 185.906 43.5802 183.982 43.5802ZM182.199 38.6981C183.614 38.6981 184.746 38.0896 185.594 36.8726C186.472 35.6274 186.91 33.9009 186.91 31.6934C186.91 29.4858 186.486 27.7736 185.637 26.5566C184.788 25.3113 183.656 24.6887 182.242 24.6887C181.195 24.6887 180.289 24.9717 179.526 25.5377C178.79 26.0755 178.224 26.8679 177.828 27.9151C177.46 28.9623 177.276 30.2217 177.276 31.6934C177.276 33.1368 177.46 34.3821 177.828 35.4292C178.224 36.4764 178.79 37.283 179.526 37.8491C180.289 38.4151 181.181 38.6981 182.199 38.6981Z" fill="black"/>
<path d="M207.622 43.5802C205.302 43.5802 203.279 43.0991 201.553 42.1368C199.855 41.1462 198.525 39.7594 197.563 37.9764C196.63 36.1934 196.163 34.0991 196.163 31.6934C196.163 29.2877 196.63 27.2075 197.563 25.4528C198.525 23.6698 199.855 22.283 201.553 21.2925C203.25 20.3019 205.259 19.8066 207.579 19.8066C209.843 19.8066 211.809 20.3019 213.478 21.2925C215.148 22.283 216.435 23.6981 217.34 25.5377C218.274 27.3774 218.741 29.5708 218.741 32.1179V33.3915H202.741C202.826 35.2028 203.307 36.5472 204.184 37.4245C205.089 38.3019 206.278 38.7406 207.749 38.7406C208.824 38.7406 209.715 38.5142 210.423 38.0613C211.158 37.6085 211.682 36.9151 211.993 35.9811L218.401 36.3632C217.807 38.6274 216.548 40.3962 214.624 41.6698C212.7 42.9434 210.366 43.5802 207.622 43.5802ZM202.741 29.4858H212.205C212.12 27.816 211.654 26.5708 210.805 25.75C209.984 24.9292 208.909 24.5189 207.579 24.5189C206.25 24.5189 205.146 24.9575 204.269 25.8349C203.42 26.684 202.911 27.9009 202.741 29.4858Z" fill="black"/>
<path d="M233.403 43.75C231.054 43.75 229.06 43.2547 227.419 42.2642C225.806 41.2736 224.561 39.9292 223.684 38.2311C222.835 36.5047 222.397 34.5377 222.368 32.3302L228.862 32.033C228.89 34.184 229.3 35.7689 230.092 36.7877C230.885 37.8066 231.988 38.316 233.403 38.316C234.846 38.316 235.963 37.8208 236.755 36.8302C237.548 35.8396 237.944 34.3113 237.944 32.2453V12.9292H244.395V32.2453C244.395 34.5943 243.928 36.6321 242.994 38.3585C242.089 40.0849 240.815 41.4151 239.174 42.3491C237.533 43.283 235.609 43.75 233.403 43.75Z" fill="black"/>
<path d="M260.01 43.5802C257.69 43.5802 255.667 43.0991 253.941 42.1368C252.216 41.1462 250.872 39.7594 249.91 37.9764C248.948 36.1934 248.467 34.0991 248.467 31.6934C248.467 29.2877 248.948 27.2075 249.91 25.4528C250.872 23.6698 252.216 22.283 253.941 21.2925C255.667 20.3019 257.69 19.8066 260.01 19.8066C262.33 19.8066 264.353 20.3019 266.079 21.2925C267.805 22.283 269.149 23.6698 270.111 25.4528C271.073 27.2075 271.554 29.2877 271.554 31.6934C271.554 34.0991 271.073 36.1934 270.111 37.9764C269.149 39.7594 267.805 41.1462 266.079 42.1368C264.353 43.0991 262.33 43.5802 260.01 43.5802ZM260.01 38.6981C261.595 38.6981 262.826 38.0896 263.703 36.8726C264.58 35.6274 265.018 33.9009 265.018 31.6934C265.018 29.4858 264.58 27.7736 263.703 26.5566C262.826 25.3113 261.595 24.6887 260.01 24.6887C258.426 24.6887 257.195 25.3113 256.318 26.5566C255.441 27.7736 255.003 29.4858 255.003 31.6934C255.003 33.9009 255.441 35.6274 256.318 36.8726C257.195 38.0896 258.426 38.6981 260.01 38.6981Z" fill="black"/>
<path d="M288.589 43.5802C287.005 43.5802 285.619 43.2406 284.43 42.5613C283.27 41.8821 282.365 40.934 281.714 39.717L281.587 43.0708H275.518V12.9292H281.884V23.5425C282.478 22.4953 283.355 21.6179 284.515 20.9104C285.675 20.1745 287.033 19.8066 288.589 19.8066C290.513 19.8066 292.183 20.3019 293.597 21.2925C295.012 22.2547 296.101 23.6274 296.865 25.4104C297.657 27.1934 298.053 29.2877 298.053 31.6934C298.053 34.0991 297.657 36.1934 296.865 37.9764C296.101 39.7594 295.012 41.1462 293.597 42.1368C292.183 43.0991 290.513 43.5802 288.589 43.5802ZM286.807 38.6981C288.222 38.6981 289.353 38.0896 290.202 36.8726C291.079 35.6274 291.518 33.9009 291.518 31.6934C291.518 29.4858 291.093 27.7736 290.244 26.5566C289.396 25.3113 288.264 24.6887 286.849 24.6887C285.802 24.6887 284.897 24.9717 284.133 25.5377C283.398 26.0755 282.832 26.8679 282.436 27.9151C282.068 28.9623 281.884 30.2217 281.884 31.6934C281.884 33.1368 282.068 34.3821 282.436 35.4292C282.832 36.4764 283.398 37.283 284.133 37.8491C284.897 38.4151 285.788 38.6981 286.807 38.6981Z" fill="black"/>
<path d="M315.073 43.5802C313.488 43.5802 312.102 43.2406 310.914 42.5613C309.754 41.8821 308.848 40.934 308.198 39.717L308.07 43.0708H302.001V12.9292H308.367V23.5425C308.961 22.4953 309.839 21.6179 310.999 20.9104C312.159 20.1745 313.517 19.8066 315.073 19.8066C316.997 19.8066 318.666 20.3019 320.081 21.2925C321.495 22.2547 322.585 23.6274 323.349 25.4104C324.141 27.1934 324.537 29.2877 324.537 31.6934C324.537 34.0991 324.141 36.1934 323.349 37.9764C322.585 39.7594 321.495 41.1462 320.081 42.1368C318.666 43.0991 316.997 43.5802 315.073 43.5802ZM313.29 38.6981C314.705 38.6981 315.837 38.0896 316.685 36.8726C317.563 35.6274 318.001 33.9009 318.001 31.6934C318.001 29.4858 317.577 27.7736 316.728 26.5566C315.879 25.3113 314.747 24.6887 313.333 24.6887C312.286 24.6887 311.381 24.9717 310.617 25.5377C309.881 26.0755 309.315 26.8679 308.919 27.9151C308.551 28.9623 308.367 30.2217 308.367 31.6934C308.367 33.1368 308.551 34.3821 308.919 35.4292C309.315 36.4764 309.881 37.283 310.617 37.8491C311.381 38.4151 312.272 38.6981 313.29 38.6981Z" fill="black"/>
<path d="M338.713 43.5802C336.393 43.5802 334.37 43.0991 332.644 42.1368C330.946 41.1462 329.616 39.7594 328.655 37.9764C327.721 36.1934 327.254 34.0991 327.254 31.6934C327.254 29.2877 327.721 27.2075 328.655 25.4528C329.616 23.6698 330.946 22.283 332.644 21.2925C334.341 20.3019 336.35 19.8066 338.67 19.8066C340.934 19.8066 342.9 20.3019 344.569 21.2925C346.239 22.283 347.526 23.6981 348.431 25.5377C349.365 27.3774 349.832 29.5708 349.832 32.1179V33.3915H333.832C333.917 35.2028 334.398 36.5472 335.275 37.4245C336.181 38.3019 337.369 38.7406 338.84 38.7406C339.915 38.7406 340.806 38.5142 341.514 38.0613C342.249 37.6085 342.773 36.9151 343.084 35.9811L349.492 36.3632C348.898 38.6274 347.639 40.3962 345.715 41.6698C343.791 42.9434 341.457 43.5802 338.713 43.5802ZM333.832 29.4858H343.296C343.211 27.816 342.745 26.5708 341.896 25.75C341.075 24.9292 340 24.5189 338.67 24.5189C337.341 24.5189 336.237 24.9575 335.36 25.8349C334.511 26.684 334.002 27.9009 333.832 29.4858Z" fill="black"/>
<path d="M353.766 43.0708V20.316H359.793L360.005 26.9387L359.538 26.8113C359.906 24.5189 360.557 22.8632 361.49 21.8443C362.424 20.8255 363.711 20.316 365.352 20.316H367.432V25.5802H365.352C364.164 25.5802 363.188 25.7358 362.424 26.0472C361.66 26.3585 361.08 26.8538 360.684 27.533C360.316 28.2123 360.132 29.1321 360.132 30.2925V43.0708H353.766Z" fill="black"/>
<path d="M379.814 43.5802C377.466 43.5802 375.5 43.2547 373.915 42.6038C372.331 41.9245 371.114 41.0189 370.265 39.8868C369.445 38.7264 368.978 37.3962 368.865 35.8962L375.316 35.684C375.514 36.7594 375.967 37.5943 376.674 38.1887C377.381 38.783 378.428 39.0802 379.814 39.0802C380.946 39.0802 381.823 38.8962 382.446 38.5283C383.096 38.1604 383.422 37.5943 383.422 36.8302C383.422 36.3491 383.309 35.9528 383.082 35.6415C382.856 35.3019 382.403 35.0189 381.724 34.7925C381.073 34.5377 380.097 34.3113 378.796 34.1132C376.391 33.6887 374.509 33.1934 373.151 32.6274C371.793 32.0613 370.831 31.3255 370.265 30.4198C369.7 29.5142 369.417 28.4104 369.417 27.1085C369.417 24.9292 370.251 23.1745 371.921 21.8443C373.618 20.4858 376.15 19.8066 379.517 19.8066C381.668 19.8066 383.464 20.1462 384.907 20.8255C386.378 21.5047 387.51 22.4387 388.302 23.6274C389.123 24.7877 389.632 26.1179 389.83 27.6179L383.422 27.8726C383.337 27.1368 383.111 26.5142 382.743 26.0047C382.403 25.467 381.965 25.0566 381.427 24.7736C380.89 24.4623 380.239 24.3066 379.475 24.3066C378.343 24.3066 377.466 24.5472 376.844 25.0283C376.249 25.4811 375.952 26.0896 375.952 26.8538C375.952 27.4198 376.08 27.8868 376.334 28.2547C376.617 28.5943 377.07 28.8774 377.692 29.1038C378.315 29.3302 379.15 29.5142 380.196 29.6557C382.63 29.9953 384.554 30.4764 385.968 31.0991C387.411 31.6934 388.444 32.4434 389.066 33.3491C389.689 34.2547 390 35.3726 390 36.7028C390 38.1745 389.576 39.4198 388.727 40.4387C387.878 41.4575 386.69 42.2359 385.162 42.7736C383.662 43.3113 381.88 43.5802 379.814 43.5802Z" fill="black"/>
</svg>
